HIERARCHY
ROOT Hips
{
	OFFSET 0.00000 0.00000 0.00000
	CHANNELS 6 Xposition Yposition Zposition Zrotation Yrotation Xrotation 
	JOINT LHipJoint
	{
		OFFSET 0 0 0
		CHANNELS 3 Zrotation Yrotation Xrotation
		JOINT LeftHip
		{
			OFFSET 1.74857 -1.85566 0.69197
			CHANNELS 3 Zrotation Yrotation Xrotation
			JOINT LeftKnee
			{
				OFFSET 2.40003 -6.59403 0.00000
				CHANNELS 3 Zrotation Yrotation Xrotation
				JOINT LeftAnkle
				{
					OFFSET 2.82169 -7.75254 0.00000
					CHANNELS 3 Zrotation Yrotation Xrotation
					JOINT LeftToe
					{
						OFFSET 0.16466 -0.45240 2.26890
						CHANNELS 3 Zrotation Yrotation Xrotation
						End Site
						{
							OFFSET 0.00000 -0.00000 1.16486
						}
					}
				}
			}
		}
	}
	JOINT RHipJoint
	{
		OFFSET 0 0 0
		CHANNELS 3 Zrotation Yrotation Xrotation
		JOINT RightHip
		{
			OFFSET -1.64169 -1.85566 0.69197
			CHANNELS 3 Zrotation Yrotation Xrotation
			JOINT RightKnee
			{
				OFFSET -2.41814 -6.64379 0.00000
				CHANNELS 3 Zrotation Yrotation Xrotation
				JOINT RightAnkle
				{
					OFFSET -2.80588 -7.70911 0.00000
					CHANNELS 3 Zrotation Yrotation Xrotation
					JOINT RightToe
					{
						OFFSET -0.19098 -0.52472 2.25401
						CHANNELS 3 Zrotation Yrotation Xrotation
						End Site
						{
							OFFSET -0.00000 -0.00000 1.16333
						}
					}
				}
			}
		}
	}
	JOINT lowerback
	{
		OFFSET 0 0 0
		CHANNELS 3 Zrotation Yrotation Xrotation
		JOINT Chest
		{
			OFFSET -0.02828 2.14690 -0.11061
			CHANNELS 3 Zrotation Yrotation Xrotation
			JOINT Chest2
			{
				OFFSET -0.00167 2.15299 0.00759
				CHANNELS 3 Zrotation Yrotation Xrotation
				JOINT lowerneck
				{
					OFFSET 0 0 0
					CHANNELS 3 Zrotation Yrotation Xrotation
					JOINT Neck
					{
						OFFSET -0.09296 1.90118 0.07197
						CHANNELS 3 Zrotation Yrotation Xrotation
						JOINT Head
						{
							OFFSET 0.08490 1.89526 -0.24604
							CHANNELS 3 Zrotation Yrotation Xrotation
							End Site
							{
								OFFSET 0.03186 1.92109 -0.09483
							}
						}
					}
				}
				JOINT LeftCollar
				{
					OFFSET 0 0 0
					CHANNELS 3 Zrotation Yrotation Xrotation
					JOINT LeftShoulder
					{
						OFFSET 3.21569 1.44644 -0.03720
CHANNELS 3 Zrotation Xrotation Yrotation
						JOINT LeftElbow
						{
OFFSET 0 -5.476510 -0.000000
CHANNELS 3 Zrotation Xrotation Yrotation
							JOINT LeftWrist
							{
OFFSET 0 -3.090580 -0.000000
CHANNELS 3 Zrotation Xrotation Yrotation
								JOINT lhand
								{
									OFFSET 0 0 0
CHANNELS 3 Zrotation Xrotation Yrotation
									JOINT LFingers
									{
OFFSET 0 -0.771610 -0.000000
CHANNELS 3 Zrotation Xrotation Yrotation
										End Site
										{
OFFSET 0 -0.622090 -0.000000
										}
									}
								}
								JOINT LThumb
								{
OFFSET 0 0.000000 0.000000
CHANNELS 3 Zrotation Xrotation Yrotation
									End Site
									{
OFFSET 0 -0.631590 0.631590
									}
								}
							}
						}
					}
				}
				JOINT RightCollar
				{
					OFFSET 0 0 0
					CHANNELS 3 Zrotation Yrotation Xrotation
					JOINT RightShoulder
					{
						OFFSET -3.38693 1.28904 -0.07093
CHANNELS 3 Zrotation Xrotation Yrotation
						JOINT RightElbow
						{
OFFSET 0 -5.141820 -0.000000
CHANNELS 3 Zrotation Xrotation Yrotation
							JOINT RightWrist
							{
OFFSET 0 -3.355650 -0.000000
CHANNELS 3 Zrotation Xrotation Yrotation
								JOINT rhand
								{
									OFFSET 0 0 0
CHANNELS 3 Zrotation Xrotation Yrotation
									JOINT RFingers
									{
OFFSET 0 -0.801040 -0.000000
CHANNELS 3 Zrotation Xrotation Yrotation
										End Site
										{
OFFSET 0 -0.645820 -0.000000
										}
									}
								}
								JOINT RThumb
								{
OFFSET 0 0.000000 0.000000
CHANNELS 3 Zrotation Xrotation Yrotation
									End Site
									{
OFFSET 0 -0.655680 0.655680
									}
								}
							}
						}
					}
				}
			}
		}
	}
}
MOTION
Frames: 9
Frame Time: 0.008333333333333333
-0.469903 18.158867 -0.967778 0.398203 0.235256 6.470595 0.000000 0.000000 0.000000 -15.750478 -7.390787 -13.305500 1.269084 7.140279 20.131508 0.432412 5.860520 -15.948927 0.777271 -5.629113 -15.711934 0.000000 0.000000 0.000000 19.691027 5.045712 -13.888100 -1.294557 -7.208858 20.335573 0.099288 -13.661365 -18.204101 -0.226009 3.059108 -8.443414 -3.065998 1.237409 9.548680 -1.639749 1.313160 3.248640 -0.118077 0.651765 -2.007191 -2.770130 3.070736 -2.732675 9.833455 3.086699 14.323032 3.639867 1.931036 4.500794 0.000000 0.000000 0.000000 158.948452 -55.929282 75.815711 47.654721 -52.004505 24.313380 -39.121532 -43.496378 -31.220007 0.000000 0.000000 0.000000 -7.125000 0.000000 0.000000 -65.982838 50.031508 13.390800 0.000000 0.000000 0.000000 -121.907393 -31.837943 -62.575319 -22.705931 -33.765637 -6.974184 37.601843 11.837042 -1.973200 0.000000 0.000000 0.000000 7.125000 0.000000 0.000000 41.857475 22.927889 31.933061
-0.546852 18.165354 -1.018333 1.246438 1.031881 7.335576 0.000000 0.000000 0.000000 -16.294551 -7.656890 -14.421908 1.226604 7.024262 19.787206 0.344009 5.830011 -14.750013 0.868900 -5.943514 -16.620628 0.000000 0.000000 0.000000 18.885244 5.083969 -15.685559 -1.445661 -7.600540 21.507408 0.059044 -13.629147 -18.661212 -0.202071 2.894130 -7.984042 -1.888027 2.473215 9.926027 -3.139210 3.018985 3.615806 -2.528120 1.511371 -1.724332 -2.858210 1.358629 -2.861742 11.141291 0.658630 13.805821 3.959152 0.809766 4.515741 0.000000 0.000000 0.000000 152.308776 -50.244880 70.880135 46.667946 -51.559897 23.538014 -39.355416 -41.897784 -31.362775 0.000000 0.000000 0.000000 -7.125000 0.000000 0.000000 -66.279362 50.077513 13.631944 0.000000 0.000000 0.000000 -129.656001 -33.426586 -68.717964 -23.131203 -34.231932 -7.211953 36.895579 11.566199 -2.066911 0.000000 0.000000 0.000000 7.125000 0.000000 0.000000 41.615571 23.110002 31.266133
-0.591562 18.118534 -1.165784 2.609102 1.451906 8.473626 0.000000 0.000000 0.000000 -17.700216 -7.241253 -18.023414 1.483044 7.694042 21.788576 0.321095 5.664052 -14.281746 0.846219 -5.867041 -16.399216 0.000000 0.000000 0.000000 17.182575 5.467911 -19.726336 -1.980977 -8.826029 25.252764 -0.082341 -12.981137 -19.437931 -0.200306 2.880850 -7.947331 -1.195126 3.501661 10.759928 -4.452171 4.406134 4.115077 -4.475988 2.225117 -1.456576 -2.960897 -0.144628 -2.105169 11.442659 -1.264843 12.250173 3.960292 -0.182240 4.060046 0.000000 0.000000 0.000000 143.202879 -45.564812 64.375079 47.694220 -52.022034 24.344492 -38.213977 -38.933599 -31.727057 0.000000 0.000000 0.000000 -7.125000 0.000000 0.000000 -66.008517 50.499506 14.456378 0.000000 0.000000 0.000000 -136.511055 -37.739000 -73.399973 -23.665191 -34.808211 -7.514652 35.737574 11.103146 -2.558206 0.000000 0.000000 0.000000 7.125000 0.000000 0.000000 41.071001 23.067168 30.503925
-0.606854 17.995767 -1.371788 4.233714 1.884778 9.138799 0.000000 0.000000 0.000000 -19.215995 -7.482701 -21.987065 2.028998 8.925866 25.563990 0.349556 4.515510 -13.753124 0.834629 -5.827604 -16.285141 0.000000 0.000000 0.000000 14.927279 5.899774 -24.430852 -2.909550 -10.546371 30.765636 -0.255873 -12.298641 -20.489783 -0.272534 3.358245 -9.277766 -0.430161 4.087323 12.461836 -5.501607 5.219246 5.083253 -6.205539 2.674339 -1.130920 -4.277631 -1.576395 -2.301551 11.309060 -2.974046 10.720272 4.052575 -1.119041 3.778411 0.000000 0.000000 0.000000 133.132984 -43.019621 58.457365 47.911715 -52.117741 24.516009 -37.129679 -35.818654 -31.106855 0.000000 0.000000 0.000000 -7.125000 0.000000 0.000000 -64.664704 50.313149 13.425415 0.000000 0.000000 0.000000 -143.188461 -43.827386 -77.290624 -23.511744 -34.643584 -7.427172 33.296793 11.226468 -3.690160 0.000000 0.000000 0.000000 7.125000 0.000000 0.000000 39.801348 22.789915 29.086227
-0.606532 17.766153 -1.570479 6.331005 1.986885 9.494115 0.000000 0.000000 0.000000 -21.227468 -7.329176 -25.841151 2.729327 10.242995 29.767673 0.445061 2.515634 -13.773705 1.025754 -6.442529 -18.074039 0.000000 0.000000 0.000000 11.913270 6.172524 -29.858686 -4.368547 -12.634104 38.015756 -0.618277 -10.784090 -22.425086 -0.211999 2.891508 -7.981935 -0.252068 4.587172 13.801149 -6.407256 5.904920 6.452051 -7.418765 3.088825 -0.198576 -4.237639 -2.783366 -2.680716 9.065524 -4.202951 8.181050 3.441897 -1.874876 3.290851 0.000000 0.000000 0.000000 121.596171 -42.981513 51.960917 47.018199 -51.719473 23.812798 -37.034286 -33.508504 -31.229575 0.000000 0.000000 0.000000 -7.125000 0.000000 0.000000 -64.738925 50.405752 13.659119 0.000000 0.000000 0.000000 -148.701697 -52.752425 -79.899925 -22.844702 -33.918453 -7.051495 28.228933 13.050991 -6.261853 0.000000 0.000000 0.000000 7.125000 0.000000 0.000000 36.804676 21.665456 26.643737
-0.570939 17.478541 -1.740451 7.577949 1.678869 9.244611 0.000000 0.000000 0.000000 -22.366206 -7.403506 -29.378043 3.756123 11.828398 35.127821 0.636595 0.711141 -15.347344 1.058849 -6.542530 -18.367006 0.000000 0.000000 0.000000 9.712704 6.755486 -34.116906 -5.953361 -14.382694 44.793626 -0.874643 -9.878745 -23.854595 -0.328439 3.683522 -10.187971 -0.184431 5.108755 15.960161 -6.436146 6.545585 7.303356 -7.756787 3.432989 -0.329982 -4.514465 -3.728430 -2.758082 6.473187 -5.150039 6.090057 2.744929 -2.474563 2.776869 0.000000 0.000000 0.000000 106.997250 -45.000523 41.520264 44.953351 -50.745602 22.202661 -38.518421 -31.758992 -31.854339 0.000000 0.000000 0.000000 -7.125000 0.000000 0.000000 -66.335204 50.522214 14.664942 0.000000 0.000000 0.000000 -150.482943 -64.274938 -77.826372 -22.750206 -33.814379 -6.998765 26.852714 12.418602 -8.001914 0.000000 0.000000 0.000000 7.125000 0.000000 0.000000 35.647839 20.358126 26.713134
-0.535808 17.176878 -1.850832 8.085597 2.198215 8.415220 0.000000 0.000000 0.000000 -22.656050 -7.795100 -32.036881 4.943530 13.319548 40.577358 0.862127 -1.113375 -17.205565 1.006287 -6.382849 -17.899403 0.000000 0.000000 0.000000 8.618624 6.185287 -36.919108 -7.428106 -15.681716 50.474801 -1.223165 -8.653796 -25.673078 -0.342194 3.747417 -10.368366 -0.783057 4.926267 17.316006 -5.728358 6.217812 8.365377 -6.686921 3.254204 -0.094279 -4.389567 -3.902245 -2.162892 5.000284 -5.254237 4.143074 2.229068 -2.583245 1.963048 0.000000 0.000000 0.000000 91.409297 -45.608898 26.571746 44.092897 -50.316254 21.538415 -39.042859 -29.099553 -32.069372 0.000000 0.000000 0.000000 -7.125000 0.000000 0.000000 -66.892637 50.557735 15.019928 0.000000 0.000000 0.000000 -145.119188 -76.419355 -69.376740 -23.535265 -34.668826 -7.440602 31.345501 9.443202 -7.029517 0.000000 0.000000 0.000000 7.125000 0.000000 0.000000 37.958039 20.285428 29.805487
-0.507486 16.979423 -1.884493 7.789721 3.546295 7.565420 0.000000 0.000000 0.000000 -22.126105 -8.985161 -32.994449 5.799211 14.230793 44.170186 1.022632 -2.081570 -18.528494 0.960867 -6.241512 -17.486870 0.000000 0.000000 0.000000 8.845386 4.604935 -38.070358 -8.351565 -16.371794 53.819175 -1.457047 -8.083609 -26.998970 -0.341095 3.752628 -10.381771 -0.296435 5.128267 18.269515 -5.549503 6.582066 9.426103 -6.864836 3.491460 0.642245 -3.183963 -4.200554 -1.915744 5.654249 -5.675522 2.633101 2.225797 -2.781267 1.433190 0.000000 0.000000 0.000000 81.951664 -48.114271 10.275616 44.561394 -50.551629 21.899615 -43.074038 -33.399495 -32.275556 0.000000 0.000000 0.000000 -7.125000 0.000000 0.000000 -69.424581 49.976931 14.941644 0.000000 0.000000 0.000000 -91.370190 -82.007132 -18.707248 -23.906768 -35.065411 -7.652977 35.380606 9.869488 -6.342461 0.000000 0.000000 0.000000 7.125000 0.000000 0.000000 39.699154 19.718036 33.164262
-0.503739 16.976281 -1.878382 6.987494 5.135456 7.221154 0.000000 0.000000 0.000000 -21.168089 -10.386463 -32.552294 5.908378 14.338912 44.612724 1.010763 -2.293725 -18.370177 0.817558 -5.769402 -16.116756 0.000000 0.000000 0.000000 9.892439 3.759816 -37.349286 -8.220986 -16.279402 53.354685 -1.399231 -9.255875 -27.413208 -0.442980 4.270091 -11.837873 0.215529 4.732464 18.593530 -5.509984 6.183291 10.175070 -7.039874 3.346595 1.299523 -2.234193 -3.266971 -1.715199 5.260687 -4.422460 2.025029 1.961836 -2.162224 1.104696 0.000000 0.000000 0.000000 77.051233 -49.754125 -1.265801 48.053772 -52.179563 24.628259 -45.580784 -39.613194 -31.533212 0.000000 0.000000 0.000000 -7.125000 0.000000 0.000000 -69.786278 49.119620 12.933728 0.000000 0.000000 0.000000 -53.294322 -78.190076 16.832959 -24.509520 -35.698368 -8.001912 40.025699 9.784257 -5.646376 0.000000 0.000000 0.000000 7.125000 0.000000 0.000000 41.249342 18.401543 37.843439
